<svg xmlns="http://www.w3.org/2000/svg" viewBox="0 0 64 64" role="img" aria-label="Chess knight favicon">
  <rect width="64" height="64" rx="14" fill="#5b21b6" />
  <path
    fill="#fff"
    d="M20 52h26c2.2 0 4-1.8 4-4s-1.8-4-4-4h-2.1a11.8 11.8 0 0 0-1.3-5.5L40 33c-1.1-2.1-1-4.7.3-6.7l2-3.3c1.9-3.2.9-7.3-2.2-9.3l-4.8-3.1c-2.1-1.3-4.7-1.7-7.1-.9l2.4 5.9-5.3 6.5c-1.6 2-2.5 4.4-2.5 7v2.3c0 3.1 1.4 6 3.8 7.9l3.4 2.7H20c-2.2 0-4 1.8-4 4s1.8 4 4 4Z"
  />
  <path
    fill="#5b21b6"
    d="m28.7 18.9 5.7 3.2c1.7 1 2.4 3.2 1.5 5l-1.1 2.2a9.9 9.9 0 0 0-.6 7.1l.9 2.8-4.4-3.1a8.3 8.3 0 0 1-3.6-6.8c0-1.7.6-3.3 1.6-4.6l3.8-4.7Z"
  />
  <circle cx="35.5" cy="19.5" r="2.2" fill="#5b21b6" />
  <rect x="18" y="48" width="32" height="4" rx="2" fill="#fff" />
</svg>
